<mxfile modified="2023-05-16T02:01:44.245Z" host="app.diagrams.net" agent="Mozilla/5.0 (Windows NT 10.0; Win64; x64) AppleWebKit/537.36 (KHTML, like Gecko) Chrome/113.0.0.0 Safari/537.36" etag="UPrplibD72m8nQ0ct4J5" version="21.3.0" type="github">
  <diagram id="Ht1M8jgEwFfnCIfOTk4-" name="Page-1">
    <mxGraphModel dx="1687" dy="899" grid="1" gridSize="10" guides="1" tooltips="1" connect="1" arrows="1" fold="1" page="1" pageScale="1" pageWidth="827" pageHeight="1169" math="0" shadow="0">
      <root>
        <mxCell id="0" />
        <mxCell id="1" parent="0" />
        <mxCell id="1pH_c-IHzfqrL5aupZJ5-75" value="" style="rounded=1;arcSize=10;dashed=1;fillColor=none;gradientColor=none;dashPattern=8 3 1 3;strokeWidth=2;" vertex="1" parent="1">
          <mxGeometry x="220" y="620" width="790" height="139.5" as="geometry" />
        </mxCell>
        <mxCell id="1pH_c-IHzfqrL5aupZJ5-73" value="" style="rounded=1;arcSize=10;dashed=1;fillColor=none;gradientColor=none;dashPattern=8 3 1 3;strokeWidth=2;" vertex="1" parent="1">
          <mxGeometry x="540" y="244" width="930" height="139.5" as="geometry" />
        </mxCell>
        <mxCell id="-QjtrjUzRDEMRZ5MF8oH-47" value="Chat On PDF docs" style="text;html=1;resizable=0;points=[];autosize=1;align=left;verticalAlign=top;spacingTop=-4;fontSize=30;fontStyle=1" parent="1" vertex="1">
          <mxGeometry x="12" y="65.5" width="290" height="40" as="geometry" />
        </mxCell>
        <mxCell id="-QjtrjUzRDEMRZ5MF8oH-48" value="Subtitle text&lt;br style=&quot;font-size: 16px&quot;&gt;" style="text;html=1;resizable=0;points=[];autosize=1;align=left;verticalAlign=top;spacingTop=-4;fontSize=16" parent="1" vertex="1">
          <mxGeometry x="12" y="115.5" width="100" height="20" as="geometry" />
        </mxCell>
        <mxCell id="SCVMTBWpLvtzJIhz15lM-1" value="" style="line;strokeWidth=2;html=1;fontSize=14;" parent="1" vertex="1">
          <mxGeometry x="8" y="140.5" width="1060" height="10" as="geometry" />
        </mxCell>
        <mxCell id="oyEKcf5Z7I-PU9Ny3r---1" value="" style="shape=image;verticalLabelPosition=bottom;labelBackgroundColor=default;verticalAlign=top;aspect=fixed;imageAspect=0;image=https://d2908q01vomqb2.cloudfront.net/2a459380709e2fe4ac2dae5733c73225ff6cfee1/2023/03/24/serverless-storytime-using-managed-ai-service-01.png;" parent="1" vertex="1">
          <mxGeometry x="70" y="980" width="1435.14" height="520" as="geometry" />
        </mxCell>
        <mxCell id="1pH_c-IHzfqrL5aupZJ5-8" value="" style="edgeStyle=orthogonalEdgeStyle;rounded=0;orthogonalLoop=1;jettySize=auto;html=1;" edge="1" parent="1" source="1pH_c-IHzfqrL5aupZJ5-12" target="oyEKcf5Z7I-PU9Ny3r---20">
          <mxGeometry x="0.0164" relative="1" as="geometry">
            <mxPoint x="114.4545454545455" y="478.9999999999999" as="sourcePoint" />
            <Array as="points" />
            <mxPoint as="offset" />
          </mxGeometry>
        </mxCell>
        <mxCell id="1pH_c-IHzfqrL5aupZJ5-39" value="(4) PDF 파일 업로드" style="edgeLabel;html=1;align=center;verticalAlign=middle;resizable=0;points=[];" vertex="1" connectable="0" parent="1pH_c-IHzfqrL5aupZJ5-8">
          <mxGeometry x="-0.1198" relative="1" as="geometry">
            <mxPoint as="offset" />
          </mxGeometry>
        </mxCell>
        <mxCell id="1pH_c-IHzfqrL5aupZJ5-9" style="edgeStyle=elbowEdgeStyle;rounded=0;orthogonalLoop=1;jettySize=auto;html=1;startArrow=none;startFill=0;" edge="1" parent="1" source="oyEKcf5Z7I-PU9Ny3r---20" target="oyEKcf5Z7I-PU9Ny3r---24">
          <mxGeometry relative="1" as="geometry">
            <Array as="points">
              <mxPoint x="370" y="450" />
              <mxPoint x="420" y="460" />
            </Array>
          </mxGeometry>
        </mxCell>
        <mxCell id="1pH_c-IHzfqrL5aupZJ5-32" value="(2) 정적 웹페이지 호출" style="edgeLabel;html=1;align=center;verticalAlign=middle;resizable=0;points=[];" vertex="1" connectable="0" parent="1pH_c-IHzfqrL5aupZJ5-9">
          <mxGeometry x="-0.0331" y="-2" relative="1" as="geometry">
            <mxPoint x="-5" y="-2" as="offset" />
          </mxGeometry>
        </mxCell>
        <mxCell id="1pH_c-IHzfqrL5aupZJ5-23" style="edgeStyle=orthogonalEdgeStyle;rounded=0;orthogonalLoop=1;jettySize=auto;html=1;" edge="1" parent="1">
          <mxGeometry relative="1" as="geometry">
            <mxPoint x="279" y="550" as="sourcePoint" />
            <mxPoint x="279" y="594" as="targetPoint" />
          </mxGeometry>
        </mxCell>
        <mxCell id="1pH_c-IHzfqrL5aupZJ5-34" style="edgeStyle=orthogonalEdgeStyle;rounded=0;orthogonalLoop=1;jettySize=auto;html=1;" edge="1" parent="1" source="oyEKcf5Z7I-PU9Ny3r---20" target="1pH_c-IHzfqrL5aupZJ5-12">
          <mxGeometry relative="1" as="geometry">
            <Array as="points">
              <mxPoint x="180" y="500" />
              <mxPoint x="180" y="500" />
            </Array>
          </mxGeometry>
        </mxCell>
        <mxCell id="1pH_c-IHzfqrL5aupZJ5-40" value="(10) 결과 확인" style="edgeLabel;html=1;align=center;verticalAlign=middle;resizable=0;points=[];" vertex="1" connectable="0" parent="1pH_c-IHzfqrL5aupZJ5-34">
          <mxGeometry x="-0.082" relative="1" as="geometry">
            <mxPoint as="offset" />
          </mxGeometry>
        </mxCell>
        <mxCell id="1pH_c-IHzfqrL5aupZJ5-58" style="edgeStyle=orthogonalEdgeStyle;rounded=0;orthogonalLoop=1;jettySize=auto;html=1;entryX=0;entryY=0.5;entryDx=0;entryDy=0;entryPerimeter=0;" edge="1" parent="1" source="oyEKcf5Z7I-PU9Ny3r---20" target="oyEKcf5Z7I-PU9Ny3r---24">
          <mxGeometry relative="1" as="geometry" />
        </mxCell>
        <mxCell id="1pH_c-IHzfqrL5aupZJ5-59" value="(5) PDF 파일 적재" style="edgeLabel;html=1;align=center;verticalAlign=middle;resizable=0;points=[];" vertex="1" connectable="0" parent="1pH_c-IHzfqrL5aupZJ5-58">
          <mxGeometry x="0.0449" relative="1" as="geometry">
            <mxPoint x="-6" as="offset" />
          </mxGeometry>
        </mxCell>
        <mxCell id="oyEKcf5Z7I-PU9Ny3r---20" value="&lt;font style=&quot;font-size: 15px;&quot;&gt;Amazon CloudFront&lt;/font&gt;" style="sketch=0;points=[[0,0,0],[0.25,0,0],[0.5,0,0],[0.75,0,0],[1,0,0],[0,1,0],[0.25,1,0],[0.5,1,0],[0.75,1,0],[1,1,0],[0,0.25,0],[0,0.5,0],[0,0.75,0],[1,0.25,0],[1,0.5,0],[1,0.75,0]];outlineConnect=0;fontColor=#232F3E;gradientColor=#945DF2;gradientDirection=north;fillColor=#5A30B5;strokeColor=#ffffff;dashed=0;verticalLabelPosition=bottom;verticalAlign=top;align=center;html=1;fontSize=15;fontStyle=0;aspect=fixed;shape=mxgraph.aws4.resourceIcon;resIcon=mxgraph.aws4.cloudfront;" parent="1" vertex="1">
          <mxGeometry x="240" y="440" width="78" height="78" as="geometry" />
        </mxCell>
        <mxCell id="1pH_c-IHzfqrL5aupZJ5-47" style="edgeStyle=orthogonalEdgeStyle;rounded=0;orthogonalLoop=1;jettySize=auto;html=1;" edge="1" parent="1" source="oyEKcf5Z7I-PU9Ny3r---24">
          <mxGeometry relative="1" as="geometry">
            <mxPoint x="599" y="380" as="targetPoint" />
          </mxGeometry>
        </mxCell>
        <mxCell id="oyEKcf5Z7I-PU9Ny3r---24" value="&lt;font style=&quot;font-size: 15px;&quot;&gt;Amazon&amp;nbsp;&lt;span style=&quot;font-weight: bold; color: rgb(95, 99, 104); font-family: &amp;quot;Apple SD Gothic Neo&amp;quot;, arial, sans-serif; text-align: left; background-color: rgb(255, 255, 255); font-size: 15px;&quot;&gt;S3&lt;/span&gt;&lt;/font&gt;" style="sketch=0;points=[[0,0,0],[0.25,0,0],[0.5,0,0],[0.75,0,0],[1,0,0],[0,1,0],[0.25,1,0],[0.5,1,0],[0.75,1,0],[1,1,0],[0,0.25,0],[0,0.5,0],[0,0.75,0],[1,0.25,0],[1,0.5,0],[1,0.75,0]];outlineConnect=0;fontColor=#232F3E;gradientColor=#60A337;gradientDirection=north;fillColor=#277116;strokeColor=#ffffff;dashed=0;verticalLabelPosition=bottom;verticalAlign=top;align=center;html=1;fontSize=15;fontStyle=0;aspect=fixed;shape=mxgraph.aws4.resourceIcon;resIcon=mxgraph.aws4.s3;" parent="1" vertex="1">
          <mxGeometry x="560" y="440" width="78" height="78" as="geometry" />
        </mxCell>
        <mxCell id="1pH_c-IHzfqrL5aupZJ5-26" style="edgeStyle=orthogonalEdgeStyle;rounded=0;orthogonalLoop=1;jettySize=auto;html=1;" edge="1" parent="1" source="oyEKcf5Z7I-PU9Ny3r---26" target="1pH_c-IHzfqrL5aupZJ5-3">
          <mxGeometry relative="1" as="geometry" />
        </mxCell>
        <mxCell id="oyEKcf5Z7I-PU9Ny3r---26" value="Amazon SageMaker&lt;br&gt;For Training" style="sketch=0;points=[[0,0,0],[0.25,0,0],[0.5,0,0],[0.75,0,0],[1,0,0],[0,1,0],[0.25,1,0],[0.5,1,0],[0.75,1,0],[1,1,0],[0,0.25,0],[0,0.5,0],[0,0.75,0],[1,0.25,0],[1,0.5,0],[1,0.75,0]];outlineConnect=0;fontColor=#232F3E;gradientColor=#4AB29A;gradientDirection=north;fillColor=#116D5B;strokeColor=#ffffff;dashed=0;verticalLabelPosition=bottom;verticalAlign=top;align=center;html=1;fontSize=15;fontStyle=0;aspect=fixed;shape=mxgraph.aws4.resourceIcon;resIcon=mxgraph.aws4.sagemaker;" parent="1" vertex="1">
          <mxGeometry x="1200" y="260" width="78" height="78" as="geometry" />
        </mxCell>
        <mxCell id="1pH_c-IHzfqrL5aupZJ5-20" style="edgeStyle=orthogonalEdgeStyle;rounded=0;orthogonalLoop=1;jettySize=auto;html=1;" edge="1" parent="1" source="oyEKcf5Z7I-PU9Ny3r---27" target="oyEKcf5Z7I-PU9Ny3r---28">
          <mxGeometry relative="1" as="geometry" />
        </mxCell>
        <mxCell id="oyEKcf5Z7I-PU9Ny3r---27" value="Amazon SQS" style="sketch=0;points=[[0,0,0],[0.25,0,0],[0.5,0,0],[0.75,0,0],[1,0,0],[0,1,0],[0.25,1,0],[0.5,1,0],[0.75,1,0],[1,1,0],[0,0.25,0],[0,0.5,0],[0,0.75,0],[1,0.25,0],[1,0.5,0],[1,0.75,0]];outlineConnect=0;fontColor=#232F3E;gradientColor=#FF4F8B;gradientDirection=north;fillColor=#BC1356;strokeColor=#ffffff;dashed=0;verticalLabelPosition=bottom;verticalAlign=top;align=center;html=1;fontSize=15;fontStyle=0;aspect=fixed;shape=mxgraph.aws4.resourceIcon;resIcon=mxgraph.aws4.sqs;" parent="1" vertex="1">
          <mxGeometry x="880" y="260" width="78" height="78" as="geometry" />
        </mxCell>
        <mxCell id="1pH_c-IHzfqrL5aupZJ5-25" style="edgeStyle=orthogonalEdgeStyle;rounded=0;orthogonalLoop=1;jettySize=auto;html=1;entryX=0;entryY=0.5;entryDx=0;entryDy=0;entryPerimeter=0;" edge="1" parent="1" source="oyEKcf5Z7I-PU9Ny3r---28" target="oyEKcf5Z7I-PU9Ny3r---26">
          <mxGeometry relative="1" as="geometry" />
        </mxCell>
        <mxCell id="oyEKcf5Z7I-PU9Ny3r---28" value="AWS Lambda" style="sketch=0;points=[[0,0,0],[0.25,0,0],[0.5,0,0],[0.75,0,0],[1,0,0],[0,1,0],[0.25,1,0],[0.5,1,0],[0.75,1,0],[1,1,0],[0,0.25,0],[0,0.5,0],[0,0.75,0],[1,0.25,0],[1,0.5,0],[1,0.75,0]];outlineConnect=0;fontColor=#232F3E;gradientColor=#F78E04;gradientDirection=north;fillColor=#D05C17;strokeColor=#ffffff;dashed=0;verticalLabelPosition=bottom;verticalAlign=top;align=center;html=1;fontSize=15;fontStyle=0;aspect=fixed;shape=mxgraph.aws4.resourceIcon;resIcon=mxgraph.aws4.lambda;" parent="1" vertex="1">
          <mxGeometry x="1040" y="260" width="78" height="78" as="geometry" />
        </mxCell>
        <mxCell id="1pH_c-IHzfqrL5aupZJ5-29" style="edgeStyle=orthogonalEdgeStyle;rounded=0;orthogonalLoop=1;jettySize=auto;html=1;entryX=0;entryY=0.5;entryDx=0;entryDy=0;entryPerimeter=0;" edge="1" parent="1" source="1pH_c-IHzfqrL5aupZJ5-1" target="1pH_c-IHzfqrL5aupZJ5-2">
          <mxGeometry relative="1" as="geometry" />
        </mxCell>
        <mxCell id="1pH_c-IHzfqrL5aupZJ5-1" value="Amazon SQS" style="sketch=0;points=[[0,0,0],[0.25,0,0],[0.5,0,0],[0.75,0,0],[1,0,0],[0,1,0],[0.25,1,0],[0.5,1,0],[0.75,1,0],[1,1,0],[0,0.25,0],[0,0.5,0],[0,0.75,0],[1,0.25,0],[1,0.5,0],[1,0.75,0]];outlineConnect=0;fontColor=#232F3E;gradientColor=#FF4F8B;gradientDirection=north;fillColor=#BC1356;strokeColor=#ffffff;dashed=0;verticalLabelPosition=bottom;verticalAlign=top;align=center;html=1;fontSize=15;fontStyle=0;aspect=fixed;shape=mxgraph.aws4.resourceIcon;resIcon=mxgraph.aws4.sqs;" vertex="1" parent="1">
          <mxGeometry x="560" y="637" width="78" height="78" as="geometry" />
        </mxCell>
        <mxCell id="1pH_c-IHzfqrL5aupZJ5-30" style="edgeStyle=orthogonalEdgeStyle;rounded=0;orthogonalLoop=1;jettySize=auto;html=1;" edge="1" parent="1" source="1pH_c-IHzfqrL5aupZJ5-2" target="1pH_c-IHzfqrL5aupZJ5-5">
          <mxGeometry relative="1" as="geometry" />
        </mxCell>
        <mxCell id="1pH_c-IHzfqrL5aupZJ5-2" value="AWS Lambda" style="sketch=0;points=[[0,0,0],[0.25,0,0],[0.5,0,0],[0.75,0,0],[1,0,0],[0,1,0],[0.25,1,0],[0.5,1,0],[0.75,1,0],[1,1,0],[0,0.25,0],[0,0.5,0],[0,0.75,0],[1,0.25,0],[1,0.5,0],[1,0.75,0]];outlineConnect=0;fontColor=#232F3E;gradientColor=#F78E04;gradientDirection=north;fillColor=#D05C17;strokeColor=#ffffff;dashed=0;verticalLabelPosition=bottom;verticalAlign=top;align=center;html=1;fontSize=15;fontStyle=0;aspect=fixed;shape=mxgraph.aws4.resourceIcon;resIcon=mxgraph.aws4.lambda;" vertex="1" parent="1">
          <mxGeometry x="720" y="637" width="78" height="78" as="geometry" />
        </mxCell>
        <mxCell id="1pH_c-IHzfqrL5aupZJ5-78" style="edgeStyle=orthogonalEdgeStyle;rounded=0;orthogonalLoop=1;jettySize=auto;html=1;" edge="1" parent="1" target="1pH_c-IHzfqrL5aupZJ5-5">
          <mxGeometry relative="1" as="geometry">
            <mxPoint x="1399" y="380" as="sourcePoint" />
            <Array as="points">
              <mxPoint x="1399" y="480" />
              <mxPoint x="940" y="480" />
            </Array>
          </mxGeometry>
        </mxCell>
        <mxCell id="1pH_c-IHzfqrL5aupZJ5-80" value="(8) 훈련된 모델 불러오기" style="edgeLabel;html=1;align=center;verticalAlign=middle;resizable=0;points=[];" vertex="1" connectable="0" parent="1pH_c-IHzfqrL5aupZJ5-78">
          <mxGeometry x="-0.1555" y="1" relative="1" as="geometry">
            <mxPoint as="offset" />
          </mxGeometry>
        </mxCell>
        <mxCell id="1pH_c-IHzfqrL5aupZJ5-3" value="&lt;font style=&quot;font-size: 14px;&quot;&gt;Amazon&amp;nbsp;SageMaker&lt;br&gt;Model Registry&lt;/font&gt;" style="sketch=0;outlineConnect=0;fontColor=#232F3E;gradientColor=none;fillColor=#067F68;strokeColor=none;dashed=0;verticalLabelPosition=bottom;verticalAlign=top;align=center;html=1;fontSize=12;fontStyle=0;aspect=fixed;pointerEvents=1;shape=mxgraph.aws4.sagemaker_model;" vertex="1" parent="1">
          <mxGeometry x="1360" y="260.5" width="78" height="78" as="geometry" />
        </mxCell>
        <mxCell id="1pH_c-IHzfqrL5aupZJ5-79" style="edgeStyle=orthogonalEdgeStyle;rounded=0;orthogonalLoop=1;jettySize=auto;html=1;entryX=1;entryY=0.5;entryDx=0;entryDy=0;entryPerimeter=0;" edge="1" parent="1" source="1pH_c-IHzfqrL5aupZJ5-5" target="oyEKcf5Z7I-PU9Ny3r---24">
          <mxGeometry relative="1" as="geometry">
            <Array as="points">
              <mxPoint x="900" y="480" />
              <mxPoint x="759" y="480" />
              <mxPoint x="759" y="479" />
            </Array>
          </mxGeometry>
        </mxCell>
        <mxCell id="1pH_c-IHzfqrL5aupZJ5-81" value="(9) 결과값 반환" style="edgeLabel;html=1;align=center;verticalAlign=middle;resizable=0;points=[];" vertex="1" connectable="0" parent="1pH_c-IHzfqrL5aupZJ5-79">
          <mxGeometry x="0.3857" relative="1" as="geometry">
            <mxPoint as="offset" />
          </mxGeometry>
        </mxCell>
        <mxCell id="1pH_c-IHzfqrL5aupZJ5-5" value="Amazon SageMaker&lt;br&gt;For Inference" style="sketch=0;points=[[0,0,0],[0.25,0,0],[0.5,0,0],[0.75,0,0],[1,0,0],[0,1,0],[0.25,1,0],[0.5,1,0],[0.75,1,0],[1,1,0],[0,0.25,0],[0,0.5,0],[0,0.75,0],[1,0.25,0],[1,0.5,0],[1,0.75,0]];outlineConnect=0;fontColor=#232F3E;gradientColor=#4AB29A;gradientDirection=north;fillColor=#116D5B;strokeColor=#ffffff;dashed=0;verticalLabelPosition=bottom;verticalAlign=top;align=center;html=1;fontSize=15;fontStyle=0;aspect=fixed;shape=mxgraph.aws4.resourceIcon;resIcon=mxgraph.aws4.sagemaker;" vertex="1" parent="1">
          <mxGeometry x="880" y="637" width="78" height="78" as="geometry" />
        </mxCell>
        <mxCell id="1pH_c-IHzfqrL5aupZJ5-12" value="Users" style="sketch=0;outlineConnect=0;fontColor=#232F3E;gradientColor=none;fillColor=#232F3D;strokeColor=none;dashed=0;verticalLabelPosition=bottom;verticalAlign=top;align=center;html=1;fontSize=12;fontStyle=0;aspect=fixed;pointerEvents=1;shape=mxgraph.aws4.users;" vertex="1" parent="1">
          <mxGeometry x="40" y="440" width="78" height="78" as="geometry" />
        </mxCell>
        <mxCell id="1pH_c-IHzfqrL5aupZJ5-24" style="edgeStyle=orthogonalEdgeStyle;rounded=0;orthogonalLoop=1;jettySize=auto;html=1;" edge="1" parent="1" source="1pH_c-IHzfqrL5aupZJ5-21" target="1pH_c-IHzfqrL5aupZJ5-22">
          <mxGeometry relative="1" as="geometry" />
        </mxCell>
        <mxCell id="1pH_c-IHzfqrL5aupZJ5-21" value="Amazon&lt;br style=&quot;font-size: 15px;&quot;&gt;API Gateway" style="sketch=0;points=[[0,0,0],[0.25,0,0],[0.5,0,0],[0.75,0,0],[1,0,0],[0,1,0],[0.25,1,0],[0.5,1,0],[0.75,1,0],[1,1,0],[0,0.25,0],[0,0.5,0],[0,0.75,0],[1,0.25,0],[1,0.5,0],[1,0.75,0]];outlineConnect=0;fontColor=#232F3E;gradientColor=#FF4F8B;gradientDirection=north;fillColor=#BC1356;strokeColor=#ffffff;dashed=0;verticalLabelPosition=bottom;verticalAlign=top;align=center;html=1;fontSize=15;fontStyle=0;aspect=fixed;shape=mxgraph.aws4.resourceIcon;resIcon=mxgraph.aws4.api_gateway;" vertex="1" parent="1">
          <mxGeometry x="240" y="637" width="78" height="78" as="geometry" />
        </mxCell>
        <mxCell id="1pH_c-IHzfqrL5aupZJ5-28" style="edgeStyle=orthogonalEdgeStyle;rounded=0;orthogonalLoop=1;jettySize=auto;html=1;entryX=0;entryY=0.5;entryDx=0;entryDy=0;entryPerimeter=0;" edge="1" parent="1" source="1pH_c-IHzfqrL5aupZJ5-22" target="1pH_c-IHzfqrL5aupZJ5-1">
          <mxGeometry relative="1" as="geometry" />
        </mxCell>
        <mxCell id="1pH_c-IHzfqrL5aupZJ5-22" value="AWS Lambda" style="sketch=0;points=[[0,0,0],[0.25,0,0],[0.5,0,0],[0.75,0,0],[1,0,0],[0,1,0],[0.25,1,0],[0.5,1,0],[0.75,1,0],[1,1,0],[0,0.25,0],[0,0.5,0],[0,0.75,0],[1,0.25,0],[1,0.5,0],[1,0.75,0]];outlineConnect=0;fontColor=#232F3E;gradientColor=#F78E04;gradientDirection=north;fillColor=#D05C17;strokeColor=#ffffff;dashed=0;verticalLabelPosition=bottom;verticalAlign=top;align=center;html=1;fontSize=15;fontStyle=0;aspect=fixed;shape=mxgraph.aws4.resourceIcon;resIcon=mxgraph.aws4.lambda;" vertex="1" parent="1">
          <mxGeometry x="400" y="637" width="78" height="78" as="geometry" />
        </mxCell>
        <mxCell id="1pH_c-IHzfqrL5aupZJ5-37" value="(1) 웹사이트 접근" style="edgeStyle=orthogonalEdgeStyle;rounded=0;orthogonalLoop=1;jettySize=auto;html=1;" edge="1" parent="1" source="1pH_c-IHzfqrL5aupZJ5-12">
          <mxGeometry x="-0.1475" relative="1" as="geometry">
            <mxPoint x="115" y="490" as="sourcePoint" />
            <mxPoint x="240" y="450" as="targetPoint" />
            <Array as="points">
              <mxPoint x="240" y="450" />
            </Array>
            <mxPoint as="offset" />
          </mxGeometry>
        </mxCell>
        <mxCell id="1pH_c-IHzfqrL5aupZJ5-61" style="edgeStyle=orthogonalEdgeStyle;rounded=0;orthogonalLoop=1;jettySize=auto;html=1;entryX=0;entryY=0.5;entryDx=0;entryDy=0;entryPerimeter=0;" edge="1" parent="1" source="1pH_c-IHzfqrL5aupZJ5-44" target="1pH_c-IHzfqrL5aupZJ5-60">
          <mxGeometry relative="1" as="geometry" />
        </mxCell>
        <mxCell id="1pH_c-IHzfqrL5aupZJ5-44" value="Amazon EventBridge&lt;br&gt;Eventbus" style="sketch=0;points=[[0,0,0],[0.25,0,0],[0.5,0,0],[0.75,0,0],[1,0,0],[0,1,0],[0.25,1,0],[0.5,1,0],[0.75,1,0],[1,1,0],[0,0.25,0],[0,0.5,0],[0,0.75,0],[1,0.25,0],[1,0.5,0],[1,0.75,0]];outlineConnect=0;fontColor=#232F3E;gradientColor=#FF4F8B;gradientDirection=north;fillColor=#BC1356;strokeColor=#ffffff;dashed=0;verticalLabelPosition=bottom;verticalAlign=top;align=center;html=1;fontSize=12;fontStyle=0;aspect=fixed;shape=mxgraph.aws4.resourceIcon;resIcon=mxgraph.aws4.eventbridge;" vertex="1" parent="1">
          <mxGeometry x="560" y="260.5" width="78" height="78" as="geometry" />
        </mxCell>
        <mxCell id="1pH_c-IHzfqrL5aupZJ5-48" value="" style="sketch=0;outlineConnect=0;fontColor=#232F3E;gradientColor=none;fillColor=#B0084D;strokeColor=none;dashed=0;verticalLabelPosition=bottom;verticalAlign=top;align=center;html=1;fontSize=12;fontStyle=0;aspect=fixed;pointerEvents=1;shape=mxgraph.aws4.event_event_based;" vertex="1" parent="1">
          <mxGeometry x="600" y="392" width="38" height="38" as="geometry" />
        </mxCell>
        <mxCell id="1pH_c-IHzfqrL5aupZJ5-49" value="s3 file uploaded" style="text;html=1;strokeColor=none;fillColor=none;align=center;verticalAlign=middle;whiteSpace=wrap;rounded=0;" vertex="1" parent="1">
          <mxGeometry x="640" y="396" width="60" height="30" as="geometry" />
        </mxCell>
        <mxCell id="1pH_c-IHzfqrL5aupZJ5-53" value="(3) Sign In/Up" style="edgeStyle=orthogonalEdgeStyle;rounded=0;orthogonalLoop=1;jettySize=auto;html=1;entryX=0.5;entryY=1;entryDx=0;entryDy=0;entryPerimeter=0;startArrow=none;startFill=0;" edge="1" parent="1" source="oyEKcf5Z7I-PU9Ny3r---20" target="1pH_c-IHzfqrL5aupZJ5-55">
          <mxGeometry relative="1" as="geometry">
            <mxPoint x="318" y="479" as="sourcePoint" />
            <mxPoint x="259" y="392" as="targetPoint" />
            <Array as="points" />
          </mxGeometry>
        </mxCell>
        <mxCell id="1pH_c-IHzfqrL5aupZJ5-55" value="" style="sketch=0;points=[[0,0,0],[0.25,0,0],[0.5,0,0],[0.75,0,0],[1,0,0],[0,1,0],[0.25,1,0],[0.5,1,0],[0.75,1,0],[1,1,0],[0,0.25,0],[0,0.5,0],[0,0.75,0],[1,0.25,0],[1,0.5,0],[1,0.75,0]];outlineConnect=0;fontColor=#232F3E;gradientColor=#F54749;gradientDirection=north;fillColor=#C7131F;strokeColor=#ffffff;dashed=0;verticalLabelPosition=bottom;verticalAlign=top;align=center;html=1;fontSize=12;fontStyle=0;aspect=fixed;shape=mxgraph.aws4.resourceIcon;resIcon=mxgraph.aws4.cognito;" vertex="1" parent="1">
          <mxGeometry x="240" y="260.5" width="78" height="78" as="geometry" />
        </mxCell>
        <mxCell id="1pH_c-IHzfqrL5aupZJ5-62" style="edgeStyle=orthogonalEdgeStyle;rounded=0;orthogonalLoop=1;jettySize=auto;html=1;entryX=0;entryY=0.5;entryDx=0;entryDy=0;entryPerimeter=0;" edge="1" parent="1" source="1pH_c-IHzfqrL5aupZJ5-60" target="oyEKcf5Z7I-PU9Ny3r---27">
          <mxGeometry relative="1" as="geometry" />
        </mxCell>
        <mxCell id="1pH_c-IHzfqrL5aupZJ5-60" value="AWS Lambda" style="sketch=0;points=[[0,0,0],[0.25,0,0],[0.5,0,0],[0.75,0,0],[1,0,0],[0,1,0],[0.25,1,0],[0.5,1,0],[0.75,1,0],[1,1,0],[0,0.25,0],[0,0.5,0],[0,0.75,0],[1,0.25,0],[1,0.5,0],[1,0.75,0]];outlineConnect=0;fontColor=#232F3E;gradientColor=#F78E04;gradientDirection=north;fillColor=#D05C17;strokeColor=#ffffff;dashed=0;verticalLabelPosition=bottom;verticalAlign=top;align=center;html=1;fontSize=15;fontStyle=0;aspect=fixed;shape=mxgraph.aws4.resourceIcon;resIcon=mxgraph.aws4.lambda;" vertex="1" parent="1">
          <mxGeometry x="720" y="260.5" width="78" height="78" as="geometry" />
        </mxCell>
        <mxCell id="1pH_c-IHzfqrL5aupZJ5-74" value="&lt;font style=&quot;font-size: 18px;&quot;&gt;(6) Training Workflow&lt;/font&gt;" style="text;html=1;strokeColor=none;fillColor=none;align=left;verticalAlign=middle;whiteSpace=wrap;rounded=0;" vertex="1" parent="1">
          <mxGeometry x="540" y="210" width="230" height="30" as="geometry" />
        </mxCell>
        <mxCell id="1pH_c-IHzfqrL5aupZJ5-76" value="&lt;font style=&quot;font-size: 18px;&quot;&gt;(7) Inference Workflow&lt;/font&gt;" style="text;html=1;strokeColor=none;fillColor=none;align=left;verticalAlign=middle;whiteSpace=wrap;rounded=0;" vertex="1" parent="1">
          <mxGeometry x="220" y="590" width="230" height="30" as="geometry" />
        </mxCell>
      </root>
    </mxGraphModel>
  </diagram>
</mxfile>
